<?xml version="1.0" encoding="UTF-8"?><svg xmlns="http://www.w3.org/2000/svg" viewBox="0 0 380.78 380.78"><defs><style>.d{fill:#212121;}.e{fill:#2d2d2d;}</style></defs><g id="a"/><g id="b"><g id="c"><g><circle class="d" cx="190.39" cy="190.39" r="190.39"/><path class="e" d="M275.65,76.16c-2.45-.32-4.89-.49-7.39-.49-16.45,0-32.34,6.43-43.57,17.64-10.43,10.4-16.17,24.17-16.17,38.77v101.15c0,10.71-7.41,18.93-17.33,19.36-.3-.02-.6-.03-.89-.03-.28,0-.55,0-.83,.03-9.89-.47-17.27-8.69-17.27-19.36v-101.19c0-31.63-26.23-56.4-59.72-56.41-2.39,0-4.53,.21-7.21,.54-7.26,.91-12.74,7.11-12.74,14.43l-.03,156.22c.47,32.15,26.89,58.31,58.88,58.31,14.59,0,28.37-5.37,38.95-14.82,10.58,9.45,24.36,14.82,38.96,14.82,32.01,0,58.42-26.18,58.86-58.51l.15-156.03c.01-7.29-5.43-13.5-12.64-14.44Z"/><g><path class="d" d="M176.21,270.87h-.97c-8.21,0-17.14-1.99-22.75-5.09-4.37-2.41-7.68-5.64-9.86-9.61-2.58-4.72-3.89-10.63-3.89-17.59v-105.94c0-9.33-2.2-18.28-6.19-25.2-5.32-9.22-14.02-12.19-14.59-12.38l-.81-.1c-1.19,0-2.28,.65-2.83,1.71-.73,1.38-.36,3.08,.89,4.03,2.06,1.57,5.81,4.87,7.8,9.33,2.8,6.28,4.05,11.03,4.05,22.6v105.94c0,9.41,1.85,17.51,5.5,24.08,4.56,8.23,11.5,11.98,15.24,13.49,5.37,2.16,11,3.28,16.74,3.3,8.89,0,12.76-2.27,13.45-2.73h0c1.19-.79,1.7-2.24,1.29-3.61-.42-1.35-1.64-2.25-3.06-2.25Z"/><path class="d" d="M267.5,96.69c-.56-1.05-1.64-1.71-3.04-1.71l-.78,.15c-.37,.12-9.1,3.12-14.41,12.32-3.99,6.92-6.18,15.87-6.18,25.2v105.94c0,6.95-1.31,12.87-3.89,17.59-2.17,3.97-5.49,7.2-9.86,9.61-5.62,3.09-14.53,5.09-22.68,5.09h-1.01c-1.43,0-2.68,.89-3.1,2.24-.42,1.36,.1,2.81,1.28,3.6,.42,.28,4.36,2.73,13.21,2.73,5.9-.03,11.62-1.14,16.98-3.3,3.73-1.51,10.67-5.26,15.24-13.49,3.65-6.57,5.5-14.67,5.5-24.08v-105.94c0-11.57,1.25-16.33,4.05-22.6,1.99-4.46,5.74-7.76,7.79-9.33,1.24-.95,1.62-2.64,.89-4.03Z"/></g></g></g></g></svg>